<?xml version="1.0" standalone="no"?>
<!DOCTYPE svg PUBLIC "-//W3C//DTD SVG 20010904//EN"
 "http://www.w3.org/TR/2001/REC-SVG-20010904/DTD/svg10.dtd">
<svg version="1.0" xmlns="http://www.w3.org/2000/svg"
 width="512.000000pt" height="512.000000pt" viewBox="0 0 512.000000 512.000000"
 preserveAspectRatio="xMidYMid meet">

<g transform="translate(0.000000,512.000000) scale(0.100000,-0.100000)"
fill="#000000" stroke="none">
<path d="M2670 5106 c-206 -45 -375 -157 -490 -326 -77 -114 -130 -279 -130
-407 l0 -58 -498 -498 c-439 -439 -501 -497 -528 -497 -16 0 -65 -9 -107 -20
-470 -123 -709 -643 -494 -1075 35 -72 103 -169 146 -209 l31 -30 0 -653 0
-653 -272 0 c-199 -1 -277 -4 -289 -13 -36 -28 -39 -51 -39 -332 l0 -277 29
-29 29 -29 1642 0 c1750 0 1686 -2 1704 45 3 9 6 145 6 301 l0 285 -25 24 -24
25 -871 0 -870 0 0 653 0 654 26 24 c47 43 113 135 149 208 56 110 77 206 79
348 l1 123 448 448 448 448 94 -1 94 0 525 -414 526 -414 0 -116 0 -116 -60
-38 c-108 -69 -172 -173 -191 -313 -6 -48 -9 -244 -7 -501 l3 -423 27 -26 c17
-18 37 -27 56 -26 16 0 115 43 220 96 170 85 191 98 201 127 7 21 11 137 11
330 l0 299 170 0 170 0 0 -313 c0 -269 2 -316 16 -335 9 -13 95 -62 193 -111
212 -107 232 -111 276 -66 l25 24 0 469 c0 500 -1 517 -52 615 -27 55 -94 124
-155 164 l-53 34 0 177 c0 186 -7 228 -50 312 -48 94 -168 184 -280 209 -23 5
-46 13 -50 18 -4 4 -207 235 -452 513 l-445 505 -5 120 c-7 144 -35 241 -103
358 -101 171 -268 297 -470 354 -74 20 -257 25 -335 9z m250 -522 c50 -21 99
-71 126 -129 57 -121 8 -263 -115 -327 -109 -57 -245 -27 -316 71 -92 126 -65
270 68 371 52 39 161 45 237 14z m-1693 -1797 c41 -22 100 -86 118 -129 21
-52 19 -153 -4 -203 -23 -50 -84 -109 -134 -130 -54 -22 -145 -21 -199 3 -226
99 -187 438 55 481 50 8 124 -2 164 -22z m3557 -420 c66 -29 103 -64 133 -124
l28 -58 3 -383 3 -382 -85 42 -86 42 0 332 0 331 -26 27 -27 26 -288 0 -288 0
-28 -24 -28 -24 -3 -334 -3 -334 -75 -37 c-41 -20 -77 -37 -79 -37 -3 0 -5
170 -5 378 0 357 1 379 21 422 23 51 71 105 112 127 53 27 112 32 397 30 248
-2 290 -5 324 -20z m-1544 -2027 l0 -170 -1535 0 -1535 0 0 170 0 170 1535 0
1535 0 0 -170z"/>
</g>
</svg>
